<?xml version="1.0" standalone="no"?>
<!DOCTYPE svg PUBLIC "-//W3C//DTD SVG 20010904//EN"
 "http://www.w3.org/TR/2001/REC-SVG-20010904/DTD/svg10.dtd">
<svg version="1.0" xmlns="http://www.w3.org/2000/svg"
 width="540.000000pt" height="360.000000pt" viewBox="0 0 540.000000 360.000000"
 preserveAspectRatio="xMidYMid meet">

<g transform="translate(0.000000,360.000000) scale(0.100000,-0.100000)"
fill="#000000" stroke="none">
<path d="M1056 2985 c-55 -19 -86 -44 -122 -97 -92 -135 -50 -329 87 -401 51
-27 59 -29 149 -24 54 2 111 11 133 20 l37 16 0 64 c0 61 2 65 25 71 28 7 44
50 28 75 -8 13 -33 17 -123 19 -123 3 -140 -3 -140 -49 0 -33 23 -49 69 -49
28 0 31 -3 31 -29 0 -37 -8 -42 -70 -43 -93 0 -140 54 -140 165 0 37 6 83 14
102 21 49 70 77 123 72 52 -5 70 -19 90 -69 10 -25 23 -40 39 -44 44 -11 54 9
54 112 0 92 0 94 -26 100 -17 4 -31 1 -41 -8 -12 -13 -20 -13 -51 -2 -48 17
-117 17 -166 -1z"/>
<path d="M4136 2985 c-22 -8 -55 -29 -74 -48 -28 -28 -36 -45 -40 -86 -9 -99
22 -131 170 -176 92 -27 118 -44 118 -75 0 -33 -28 -50 -83 -50 -62 0 -90 16
-117 70 -22 43 -49 57 -80 40 -18 -9 -20 -20 -20 -94 0 -55 4 -87 13 -93 6 -5
73 -10 147 -11 123 -2 139 0 180 20 59 30 90 77 90 137 0 95 -45 137 -186 172
-87 22 -104 32 -104 64 0 68 131 71 166 4 19 -38 48 -53 74 -39 27 14 34 49
24 118 -8 49 -12 57 -32 60 -13 2 -29 -2 -37 -8 -10 -8 -24 -8 -52 -1 -51 15
-110 13 -157 -4z"/>
<path d="M1443 2975 c-31 -22 -30 -60 2 -81 25 -16 25 -17 25 -170 0 -129 -2
-154 -15 -154 -16 0 -35 -30 -35 -54 0 -8 7 -22 16 -30 13 -14 47 -16 218 -16
144 0 205 3 214 12 15 15 16 142 2 169 -12 22 -59 26 -78 7 -7 -7 -12 -29 -12
-50 l0 -38 -95 0 -95 0 0 60 c0 59 0 60 28 60 21 0 32 -7 40 -25 13 -27 58
-35 80 -13 19 19 16 153 -4 172 -23 24 -52 19 -72 -11 -12 -20 -25 -28 -46
-28 -28 1 -29 2 -29 50 l0 50 97 3 96 3 0 -39 c0 -43 14 -62 46 -62 40 0 54
25 54 98 0 37 -5 74 -10 82 -14 23 -395 28 -427 5z"/>
<path d="M1978 2983 c-37 -9 -35 -86 2 -96 19 -5 20 -14 20 -159 0 -149 -1
-154 -22 -163 -27 -12 -37 -65 -15 -84 11 -8 74 -11 223 -9 l209 3 0 95 0 95
-40 0 c-40 0 -40 0 -49 -47 l-9 -48 -94 0 -93 0 0 60 0 60 33 0 c24 0 35 -6
42 -22 7 -16 20 -24 43 -26 27 -3 34 1 42 23 17 44 12 130 -8 155 -22 27 -67
22 -77 -9 -5 -18 -58 -35 -70 -23 -3 3 -5 27 -5 54 l0 48 94 0 93 0 6 -36 c7
-44 23 -64 51 -64 37 0 46 19 46 102 0 66 -3 79 -19 88 -19 10 -367 13 -403 3z"/>
<path d="M2503 2980 c-42 -17 -38 -81 7 -95 19 -6 20 -15 20 -161 0 -129 -2
-154 -15 -154 -37 0 -53 -71 -21 -92 19 -13 171 -9 190 5 25 18 18 69 -11 82
-19 8 -23 18 -23 51 0 25 6 47 15 54 13 11 20 9 43 -13 15 -14 41 -52 57 -84
48 -92 60 -103 120 -103 57 0 75 12 75 50 0 30 -16 50 -41 50 -11 0 -31 25
-54 68 -20 37 -50 81 -66 97 l-29 31 53 52 c29 29 69 60 88 70 43 22 51 62 17
86 -30 22 -145 22 -176 0 -26 -18 -28 -50 -5 -76 16 -18 14 -22 -40 -76 l-57
-57 0 56 c0 49 3 59 25 73 32 21 33 59 3 80 -25 18 -137 21 -175 6z"/>
<path d="M3609 2977 c-14 -8 -25 -23 -27 -39 -4 -35 30 -58 85 -58 l43 0 0
-155 0 -155 -49 0 c-53 0 -81 -17 -81 -50 0 -44 22 -50 189 -50 169 0 181 3
181 51 0 36 -16 47 -73 51 l-48 3 -2 153 -2 152 37 0 c60 0 88 15 88 47 0 56
-7 58 -168 60 -99 1 -157 -2 -173 -10z"/>
<path d="M1151 2329 c-104 -13 -169 -29 -182 -45 -8 -10 -9 -33 -5 -77 12
-105 22 -131 63 -158 51 -32 92 -120 143 -305 67 -243 118 -316 258 -375 115
-47 234 -69 387 -69 76 0 159 6 200 15 219 46 375 210 490 513 15 40 42 88 60
107 30 33 36 35 96 35 99 0 106 -8 184 -196 57 -139 119 -236 203 -317 129
-124 251 -162 502 -154 299 9 471 88 545 250 13 29 42 116 63 195 49 175 93
268 144 301 39 25 50 54 62 166 8 70 -3 82 -99 102 -67 14 -139 17 -430 18
-447 0 -665 -22 -847 -84 -135 -47 -215 -63 -323 -63 -110 0 -178 13 -336 65
-109 37 -247 59 -473 77 -150 12 -612 11 -705 -1z m644 -109 c209 -10 336 -35
436 -85 125 -63 162 -136 139 -279 -31 -197 -161 -379 -312 -438 -74 -30 -280
-37 -411 -14 -274 47 -322 91 -374 355 -42 215 -22 388 50 436 53 35 167 41
472 25z m2190 -16 c28 -14 46 -33 65 -69 23 -46 25 -60 24 -175 0 -96 -7 -153
-27 -243 -39 -177 -85 -241 -193 -273 -127 -37 -240 -54 -359 -54 -135 0 -214
16 -285 57 -162 95 -290 375 -250 543 22 93 105 149 289 196 175 45 658 57
736 18z m-2780 -44 c19 -7 19 -8 2 -15 -24 -10 -116 0 -130 14 -8 8 4 11 49
10 32 0 68 -4 79 -9z m3048 -1 c-14 -14 -106 -24 -130 -14 -17 7 -17 8 2 15
11 5 47 9 80 9 44 1 56 -2 48 -10z"/>
<path d="M953 1213 c-72 -9 -42 -65 39 -73 l54 -5 -43 -140 c-55 -175 -62
-222 -37 -253 41 -50 156 -49 203 2 31 33 19 51 -20 30 -36 -18 -88 -15 -102
7 -7 12 5 61 44 185 l54 169 50 3 c79 4 95 10 95 35 0 43 -15 47 -165 45 -77
0 -154 -3 -172 -5z"/>
<path d="M2024 1206 c-68 -31 -128 -148 -106 -207 13 -32 37 -52 59 -47 15 3
17 12 15 49 -6 83 40 159 87 144 45 -14 32 -90 -44 -270 -62 -146 -64 -155
-32 -155 45 0 57 11 94 83 72 144 197 329 230 341 34 13 32 -13 -7 -117 -90
-237 -87 -282 21 -302 21 -4 51 -1 75 7 33 12 45 12 73 1 46 -19 260 -12 293
9 22 14 26 14 47 -3 25 -21 57 -24 93 -10 83 32 173 232 126 279 -15 15 -51
15 -66 0 -15 -15 -16 -70 -1 -85 16 -16 5 -52 -31 -101 -35 -49 -70 -57 -70
-17 0 13 11 55 25 92 22 58 24 69 11 81 -9 9 -24 12 -40 8 -21 -5 -28 -17 -41
-64 -26 -92 -36 -112 -66 -127 -51 -27 -50 15 3 144 25 60 28 75 17 82 -17 11
-40 11 -55 1 -30 -20 -74 -143 -74 -209 l0 -43 -54 0 c-65 0 -78 13 -40 42 37
30 84 107 84 139 0 44 -35 79 -79 79 -84 0 -151 -85 -151 -192 0 -64 -10 -75
-55 -64 -35 9 -33 28 25 201 64 190 64 212 6 235 -60 23 -147 -39 -208 -147
-32 -57 -43 -68 -28 -27 6 14 10 49 10 78 0 42 -5 57 -24 75 -29 28 -82 35
-122 17z m569 -249 c8 -21 -18 -71 -53 -100 -18 -15 -35 -26 -37 -23 -12 11
10 77 33 106 27 32 49 38 57 17z"/>
<path d="M3426 1210 c-73 -23 -136 -96 -136 -156 0 -45 34 -89 90 -120 65 -35
86 -71 70 -120 -6 -19 -15 -34 -20 -34 -5 0 -46 9 -92 20 -107 26 -152 26
-178 0 -42 -42 -16 -109 55 -136 70 -26 163 -16 220 24 33 23 57 32 86 32 22
0 53 7 70 15 27 14 32 14 51 0 14 -9 45 -15 83 -15 54 0 70 5 126 39 l64 39
28 -34 c34 -41 91 -59 143 -45 24 7 43 6 59 -1 28 -13 86 12 115 50 25 32 25
17 0 -52 -33 -87 -107 -140 -140 -101 -18 21 -64 19 -85 -5 -16 -18 -17 -21
-1 -44 46 -71 207 -20 258 83 37 73 122 337 115 355 -4 9 -17 16 -31 16 -21 0
-31 -14 -74 -104 -48 -101 -87 -146 -112 -131 -16 10 -12 30 25 128 34 86 35
92 19 104 -24 18 -31 17 -59 -11 -27 -28 -65 -141 -65 -197 0 -37 -1 -39 -33
-39 -18 0 -42 7 -54 15 -26 18 -46 81 -33 104 15 27 74 79 95 83 32 5 26 42
-7 46 -21 2 -38 -7 -70 -36 l-43 -40 -10 31 c-12 38 -50 60 -77 46 -22 -12
-23 -32 -4 -62 26 -41 30 -86 9 -109 -48 -55 -150 -97 -167 -69 -3 4 6 19 21
32 40 37 83 110 83 141 0 41 -40 78 -83 78 -79 0 -148 -90 -151 -197 l-1 -58
-33 -3 -34 -3 7 43 c17 98 4 130 -72 173 -68 39 -83 54 -83 84 0 37 24 68 65
81 46 15 90 5 113 -27 13 -18 25 -24 36 -20 27 10 17 66 -15 90 -30 22 -100
31 -143 17z m334 -274 c0 -22 -64 -106 -81 -106 -14 0 -11 48 6 80 16 32 54
62 67 54 4 -3 8 -15 8 -28z m-453 -182 c46 -9 81 -20 78 -24 -2 -4 -25 -13
-50 -20 -36 -10 -55 -10 -85 -1 -43 13 -55 24 -46 46 7 18 4 18 103 -1z"/>
<path d="M1320 1144 c-19 -51 -98 -321 -113 -384 -14 -61 50 -67 73 -8 17 43
92 159 114 177 27 23 29 6 8 -61 -31 -97 -32 -106 -12 -131 18 -22 54 -26 175
-18 17 1 56 -1 87 -5 67 -8 108 5 138 44 31 39 24 43 -32 21 -31 -12 -62 -18
-76 -14 l-25 6 40 42 c79 83 92 130 51 182 -19 24 -26 27 -66 22 -88 -10 -144
-86 -140 -192 l2 -60 -37 -3 c-51 -4 -55 13 -23 109 32 99 32 114 2 134 -33
22 -68 11 -117 -39 -23 -22 -39 -34 -36 -26 3 8 24 63 47 123 23 59 40 114 36
122 -3 9 -18 15 -40 15 -33 0 -36 -3 -56 -56z m396 -198 c3 -8 -1 -27 -9 -43
-19 -34 -74 -89 -83 -80 -14 13 9 81 36 109 31 31 48 35 56 14z"/>
</g>
</svg>
